<svg xmlns="http://www.w3.org/2000/svg" width="56" height="48" version="1.1"><defs><filter id="blur" width="1.338" height="1.496" x="-.176" y="-.196"><feGaussianBlur in="SourceAlpha" stdDeviation="3"/><feOffset dx="0" dy="4" result="offsetblur"/><feComponentTransfer><feFuncA slope=".05" type="linear"/></feComponentTransfer><feMerge><feMergeNode/><feMergeNode in="SourceGraphic"/></feMerge></filter><style type="text/css">@keyframes am-weather-cloud-3{0%{-webkit-transform:translate(-5px,0);-moz-transform:translate(-5px,0);-ms-transform:translate(-5px,0);transform:translate(-5px,0)}50%{-webkit-transform:translate(10px,0);-moz-transform:translate(10px,0);-ms-transform:translate(10px,0);transform:translate(10px,0)}}@keyframes am-weather-cloud-1{0%{-webkit-transform:translate(0,0);-moz-transform:translate(0,0);-ms-transform:translate(0,0);transform:translate(0,0)}50%{-webkit-transform:translate(2px,0);-moz-transform:translate(2px,0);-ms-transform:translate(2px,0);transform:translate(2px,0)}}@keyframes am-weather-stroke{0%,12%,16%,20%,24%,28%,4%,8%{-webkit-transform:translate(0,0);-moz-transform:translate(0,0);-ms-transform:translate(0,0);transform:translate(0,0)}10%,14%,18%,2%{-webkit-transform:translate(.3px,0);-moz-transform:translate(.3px,0);-ms-transform:translate(.3px,0);transform:translate(.3px,0)}6%{-webkit-transform:translate(.5px,.4px);-moz-transform:translate(.5px,.4px);-ms-transform:translate(.5px,.4px);transform:translate(.5px,.4px)}22%{-webkit-transform:translate(1px,0);-moz-transform:translate(1px,0);-ms-transform:translate(1px,0);transform:translate(1px,0)}26%{-webkit-transform:translate(-1px,0);-moz-transform:translate(-1px,0);-ms-transform:translate(-1px,0);transform:translate(-1px,0)}40%{fill:orange;-webkit-transform:translate(0,0);-moz-transform:translate(0,0);-ms-transform:translate(0,0);transform:translate(0,0)}65%{fill:#fff;-webkit-transform:translate(-1px,5px);-moz-transform:translate(-1px,5px);-ms-transform:translate(-1px,5px);transform:translate(-1px,5px)}61%{fill:orange}}@keyframes error{0%{fill:#c00}50%{fill:red}}.am-weather-cloud-1{-webkit-animation-timing-function:linear;-moz-animation-timing-function:linear;animation-timing-function:linear;-webkit-animation-iteration-count:infinite;-moz-animation-iteration-count:infinite;animation-iteration-count:infinite}.am-weather-cloud-3{-webkit-animation-name:am-weather-cloud-3;-moz-animation-name:am-weather-cloud-3;animation-name:am-weather-cloud-3;-webkit-animation-duration:7s;-moz-animation-duration:7s;animation-duration:7s}.am-weather-cloud-3,.am-weather-stroke{-webkit-animation-timing-function:linear;-moz-animation-timing-function:linear;animation-timing-function:linear;-webkit-animation-iteration-count:infinite;-moz-animation-iteration-count:infinite;animation-iteration-count:infinite}.am-weather-cloud-1{-webkit-animation-name:am-weather-cloud-1;-moz-animation-name:am-weather-cloud-1;animation-name:am-weather-cloud-1;-webkit-animation-duration:3s;-moz-animation-duration:3s;animation-duration:3s}.am-weather-stroke{-webkit-animation-name:am-weather-stroke;-moz-animation-name:am-weather-stroke;animation-name:am-weather-stroke;-webkit-animation-duration:1.11s;-moz-animation-duration:1.11s;animation-duration:1.11s}</style></defs><g filter="url(#blur)" transform="translate(16,-2)"><g class="am-weather-cloud-1" style="-moz-animation-duration:7s;-moz-animation-iteration-count:infinite;-moz-animation-name:am-weather-cloud-1;-moz-animation-timing-function:linear;-webkit-animation-duration:7s;-webkit-animation-iteration-count:infinite;-webkit-animation-name:am-weather-cloud-1;-webkit-animation-timing-function:linear"><path fill="#666" stroke="#fff" stroke-linejoin="round" stroke-width="1.2" d="m47.7 35.4c0-4.6-3.7-8.2-8.2-8.2-1 0-1.9 0.2-2.8 0.5-0.3-3.4-3.1-6.2-6.6-6.2-3.7 0-6.7 3-6.7 6.7 0 0.8 0.2 1.6 0.4 2.3-0.3-0.1-0.7-0.1-1-0.1-3.7 0-6.7 3-6.7 6.7 0 3.6 2.9 6.6 6.5 6.7h17.2c4.4-0.5 7.9-4 7.9-8.4z" transform="matrix(.6 0 0 .6 -10 -6)"/></g><g class="am-weather-cloud-3"><path fill="#333" stroke="#fff" stroke-linejoin="round" stroke-width="1.2" d="m47.7 35.4c0-4.6-3.7-8.2-8.2-8.2-1 0-1.9 0.2-2.8 0.5-0.3-3.4-3.1-6.2-6.6-6.2-3.7 0-6.7 3-6.7 6.7 0 0.8 0.2 1.6 0.4 2.3-0.3-0.1-0.7-0.1-1-0.1-3.7 0-6.7 3-6.7 6.7 0 3.6 2.9 6.6 6.5 6.7h17.2c4.4-0.5 7.9-4 7.9-8.4z" transform="translate(-20,-11)"/></g><g transform="matrix(1.2,0,0,1.2,-4,28)"><polygon fill="orange" stroke="#fff" points="11.1 6.9 14.3 -2.9 20.5 -2.9 16.4 4.3 20.3 4.3 11.5 14.6 14.9 6.9" class="am-weather-stroke" style="-moz-animation-duration:1.11s;-moz-animation-iteration-count:infinite;-moz-animation-name:am-weather-stroke;-moz-animation-timing-function:linear;-webkit-animation-duration:1.11s;-webkit-animation-iteration-count:infinite;-webkit-animation-name:am-weather-stroke;-webkit-animation-timing-function:linear"/></g><g class="warning" transform="translate(20,30)"><path fill="#c00" d="m7.7791 2.906-5.9912 10.117c-0.56283 0.95042-0.24862 2.1772 0.7018 2.74 0.30853 0.18271 0.66051 0.27911 1.0191 0.27911h11.982c1.1046 0 2-0.89543 2-2 0-0.35857-0.0964-0.71056-0.27911-1.0191l-5.9912-10.117c-0.56283-0.95042-1.7896-1.2646-2.74-0.7018-0.28918 0.17125-0.53055 0.41262-0.7018 0.7018z"/><path stroke="#fff" stroke-linecap="round" stroke-width="1.5" d="m9.5 10.5v-5"/><circle cx="9.5" cy="13" r="1" fill="#fff"/></g></g></svg>